<?xml version="1.0" encoding="UTF-8"?>
<svg id="Ebene_1" xmlns="http://www.w3.org/2000/svg" version="1.1" viewBox="0 0 673.56 934.93">
  <!-- Generator: Adobe Illustrator 29.7.0, SVG Export Plug-In . SVG Version: 2.1.1 Build 138)  -->
  <defs>
    <style>
      .st0 {
        fill: #a5caed;
      }

      .st0, .st1, .st2, .st3, .st4, .st5, .st6 {
        fill-rule: evenodd;
      }

      .st1 {
        fill: #fff;
      }

      .st2 {
        fill: #d0d1d3;
      }

      .st3 {
        fill: #cccde7;
      }

      .st4 {
        fill: #666575;
      }

      .st6 {
        fill: #737da7;
      }
    </style>
  </defs>
  <path class="st0" d="M629.08,708.07c-16.11-19.25-52.84-29.1-111.05-28.65-57.78.43-120.02,10.29-186.28,29.99-65.83,19.27-116.91,42.98-152.27,70.75-35.39,27.79-45.24,51.07-29.1,70.78,16.11,19.71,52.84,29.56,111.05,28.65,58.21,0,120.02-10.29,186.28-29.56,66.29-19.71,116.88-43.45,152.27-71.18,35.39-27.79,45.68-51.07,29.1-70.78Z"/>
  <path class="st0" d="M579.8,722.87c-12.97-15.68-42.07-23.31-88.21-22.85-46.13,0-95.39,8.05-147.79,23.73-52.41,15.68-92.71,34.05-120.93,55.98-28.2,22.4-36.25,40.74-23.28,56.42,13,15.68,42.1,23.31,88.23,22.85,46.13,0,95.39-8.05,147.79-23.73,52.84-15.68,92.68-34.05,120.9-56.42,28.22-21.96,36.28-40.32,23.28-55.98Z"/>
  <path class="st4" d="M235.46,125c9.88-5.39,20.97-8.16,32.22-8.07,12.11-.45,22.4,2.68,30.91,8.07,8.98,5.33,15.43,14.04,17.91,24.18,4.94,20.6,5.82,44.78,2.71,72.55-8.08,66.73-13.9,118.23-16.13,154.51-3.57,46.13-8.05,133.45-13.88,261.98-.45,14.8-4.94,26.87-12.09,35.85-7.63,8.51-15.68,12.97-25.54,12.97-10.31.45-18.37-2.68-25.08-9.86-7.17-7.6-11.19-18.79-10.74-33.59,0-30.88,1.78-88.66,6.25-173.3-2.23-10.3-9.86-14.33-22.4-11.65-6.25,1.35-10.74,6.26-12.97,14.33-4.49,89.13-6.28,151.82-5.4,187.18.45,23.31,8.08,41.67,23.31,54.64,13.88,11.65,30.91,17.02,50.15,16.13,19.25-1.35,35.82-8.05,49.7-20.6,15.23-14.33,23.28-33.16,24.19-55.98,2.68-80.18,8.51-156.3,17.91-229.75l23.73-198.39c5.82-68.96-7.17-116.44-39.42-141.51-20.14-15.23-43.45-22.84-70.32-22.4-28.2.45-51.93,9.42-71.18,26.87-23.31,21.05-36.73,50.15-40.76,87.78-16.56,165.25-23.31,358.72-20.6,580.85.88,40.3,14.32,70.75,41.65,91.8,24.16,17.91,53.73,26.42,88.66,23.28,34.93-2.68,64.5-14.77,88.66-36.28,27.33-22.85,40.76-51.96,41.22-85.98l4.49-172.43c.88-26.42,17.02-57.3,48.82-93.14,0-8.07-3.14-14.33-8.96-18.81-4.92-4.49-12.09-6.26-20.14-6.72-39.42,39.86-59.58,75.25-59.13,106.13l-3.57,180.49c-1.8,24.16-12.11,43.88-30.01,57.75-16.11,12.54-35.39,19.27-58.66,19.71-22.4.45-41.65-4.92-58.66-17.02-18.37-12.09-28.2-30.45-29.99-53.27-4.03-45.24-2.68-128.98,4.49-251.69l20.14-293.78c2.23-24.63,7.17-44.33,14.33-59.12,4.89-9.88,12.97-17.94,24.18-23.76h0Z"/>
  <path class="st6" d="M217.52,126.79c15.68-16.12,34.93-23.29,58.66-21.5,24.19,2.24,42.1,12.98,54.19,32.24,6.28,9.84,10.31,21.94,11.22,37.61.43,11.21,0,28.66-2.26,51.5l-16.56,166.14c-5.82,67.62-10.31,150.46-13.42,248.09-.45,15.68-5.82,28.22-16.13,37.61-8.96,8.51-20.14,13.45-33.59,14.33-12.54,1.35-24.16-.88-33.14-7.6-10.31-6.74-15.23-16.13-15.68-29.1-.43-58.23.91-116.91,4.03-176.45,4.94-3.58,5.82-7.63,3.14-12.1-3.14-4.49-7.6-6.26-13.88-6.26-7.17,0-11.65,3.58-13.42,9.86-2.26,6.72,1.35,9.84,9.86,10.75-3.59,88.67-5.37,148.69-4.49,180.93,0,15.65,6.72,27.77,19.25,35.82,11.19,7.6,25.54,10.29,42.1,8.94s30.45-7.15,42.53-16.56c13-10.74,20.17-24.16,21.5-41.19,6.72-112.4,11.65-189.44,15.23-229.73,4.94-51.06,12.54-110.17,22.4-178.24,8.51-55.52,3.57-97.62-16.13-126.73-18.34-26.87-43.88-39.86-75.67-39.42-32.7.44-58.66,14.79-77.92,42.98-9.43,13.44-16.13,39.42-21.5,76.59-17.02,129.87-24.19,319.3-22.4,567.86,0,31.33,12.09,55.07,36.28,71.63,21.5,15.23,48.36,22.4,80.15,21.05,31.36-1.8,57.78-10.74,80.18-28.22,25.08-18.79,37.61-43.45,38.51-73.89l4.49-179.58c0-30.45,17.91-61.79,52.84-93.59,1.8-2.68,1.35-5.82-1.78-9.4-4.49-4.03-7.17-6.28-8.96-5.82-38.08,41.65-57.33,77.91-57.33,107.48,0,114.65-1.35,176-4.03,184.52-7.63,26.42-22.4,46.56-44.33,60.01-19.25,11.62-41.22,17.46-65.38,16.56-23.73-.88-44.33-7.63-61.81-19.71-17.91-13.42-27.77-30.45-29.1-51.05-3.57-50.61-2.68-135.7,2.68-255.27,5.37-115.11,13-218.1,21.93-308.11,4.03-33.1,13-57.73,27.77-72.95h0Z"/>
  <path class="st3" d="M373.35,747.94c-1.78.43-3.11,1.35-4.01,4.03l-1.36,8.51c-7.15,26.42-21.93,46.56-43.88,60.44-19.25,12.11-42.1,17.48-67.18,16.56-24.19-.88-45.21-8.05-62.7-20.14-18.82-13.45-29.56-30.45-31.33-50.61,0-5.37-1.35-7.17-4.94-7.17-4.49.45-5.82,3.14-4.03,8.51,4.49,27.77,17.91,49.27,40.3,64.04,20.6,13,44.33,19.25,71.66,17.48,27.3-1.35,51.05-9.43,71.63-25.08,21.96-16.56,35.39-38.96,39.87-66.73,1.37-6.73.04-10.3-4.02-9.84ZM213.94,481.02l-6.72,1.79-3.59,72.1c-2.23,46.13-3.57,79.71-3.11,100.78.43,15.68,6.25,27.77,17.91,36.28,10.74,8.05,23.73,11.19,38.96,10.29,14.68-.82,28.74-6.14,40.3-15.23,12.54-10.74,19.71-24.16,21.5-41.65.43-4.92,0-7.17-2.26-7.17-2.68,0-3.14,2.68-3.14,7.17-2.23,16.13-9.4,28.68-20.6,38.51-10.31,8.51-22.4,13.45-35.82,13.88-13.45.45-24.64-3.11-33.59-10.74-9.86-8.94-14.8-21.02-14.8-37.16l4.95-168.84h0ZM230.97,104.85c19.69-13.44,39.84-18.81,61.79-15.67,22.85,3.58,39.42,15.23,49.27,35.38,8.51,15.67,12.09,33.59,12.09,54.19-.43,4.03.45,6.26,3.59,6.72,2.23.45,3.57-2.23,3.57-8.07,0-23.73-4.92-44.78-16.11-63.59-11.65-19.25-28.68-30.89-52.41-34.47-23.28-4.03-46.13,1.35-67.61,15.23-3.14,3.14-4.03,6.26-2.26,8.95,2.26,3.13,4.94,3.58,8.08,1.34h0Z"/>
  <path class="st4" d="M78.7,344.88c-3.14,21.94,2.23,41.2,14.77,58.66,13,17.46,30.45,27.31,51.96,30.45,21.93,3.14,41.22-1.79,58.66-14.79,17.46-12.98,27.3-30,30.45-51.94,3.14-21.5-1.8-40.76-14.77-58.22-13-17.02-30.45-27.77-51.96-30.45-21.5-3.58-40.76,1.79-58.21,14.32-17.48,13.46-27.77,30.48-30.91,51.97h0Z"/>
  <path class="st2" d="M107.81,306.37c-17.02,9.42-26.42,22.4-29.1,38.52-2.23,17.02,3.14,33.14,16.56,48.82,13.88,16.56,30.91,26.42,51.96,29.56s40.3-1.35,58.21-13.44c17.02-11.65,26.87-25.52,29.1-42.54,2.23-16.12-3.14-31.35-17.02-44.78-13.42-13.44-30.88-22.4-52.38-25.08-21.52-3.14-40.76-.01-57.33,8.95Z"/>
  <path class="st1" d="M162.9,310.84c-20.17-3.14-38.08-.89-53.76,5.81-15.68,6.73-24.62,16.12-26.42,29.12-1.8,13.44,3.59,25.98,16.56,38.96,13.19,13.84,30.76,22.7,49.73,25.08,19.69,2.68,37.61-.45,54.62-9.86,15.68-8.95,24.62-19.71,26.87-33.14,1.8-12.98-4.03-24.63-17.46-35.38-12.98-10.74-29.55-17.91-50.14-20.6Z"/>
  <path class="st5" d="M159.77,332.79c-7.17-.44-14.33.89-20.17,5.38s-9.4,10.75-10.74,18.37c-.88,7.6.88,14.33,5.37,20.14,4.49,6.26,10.74,9.42,18.37,10.75,7.17.89,13.88-.89,20.17-5.38,6.25-4.47,9.4-10.75,10.74-17.91.88-7.16-.91-13.88-5.37-20.6-4.49-5.82-10.76-9.42-18.37-10.75h0Z"/>
  <path class="st4" d="M349.19,269.65c-21.93-3.14-41.19,2.24-58.21,14.77-17.02,12.98-27.33,30.45-30.48,52.4-3.11,21.05,1.8,40.75,14.8,58.22s29.99,27.31,51.96,30.45c21.48,3.14,40.74-1.79,58.21-14.79,17.46-12.98,27.77-30.45,30.45-51.5,3.14-21.94-1.35-41.2-14.77-59.12-13-17.02-30.45-27.31-51.96-30.44Z"/>
  <path class="st2" d="M346.5,288.46c-21.5-3.14-40.76.44-57.78,9.86-16.56,9.4-25.97,21.93-28.22,38.51-2.66,16.58,2.71,33.14,16.13,48.82,13.42,16.56,31.36,25.97,51.96,28.65,21.05,3.14,40.3-1.35,58.21-13.42,17.02-11.21,26.87-25.08,29.1-41.65,2.68-16.58-3.14-31.35-16.56-45.68-13.42-13.45-30.91-21.5-52.84-25.08h0Z"/>
  <path class="st1" d="M265.44,337.28c-1.8,12.98,3.57,25.98,16.11,38.51,13.45,13.44,29.56,21.94,48.82,24.63,19.71,2.7,37.61-.44,54.21-9.84,15.23-8.51,24.16-19.26,25.97-32.7,1.8-12.09-3.59-23.73-16.56-34.47-13-10.75-29.56-17.47-49.27-20.16-20.6-3.14-38.08-1.34-53.29,5.82-15.67,6.25-24.18,16.11-25.98,28.21h0Z"/>
  <path class="st5" d="M364.87,355.63c.88-7.61-.45-14.33-4.94-20.6-4.46-5.82-10.74-9.4-18.34-10.75-7.63-.89-14.33.89-20.17,5.38-6.28,4.47-10.31,10.74-11.19,18.37-.95,7.16.98,14.41,5.37,20.16,4.49,6.26,10.74,9.84,17.91,11.19,7.3.96,14.7-.97,20.6-5.38,6.28-4.49,9.86-10.75,10.76-18.37ZM135.56,178.73c-29.99,10.75-53.29,37.17-70.3,80.17,35.37-35.82,64.04-51.94,87.31-48.36l-17.02-31.8ZM354.1,192.17l-12.09,34.49c16.56.45,35.39,6.26,56.87,17.02,21.05,10.75,40.76,25.08,60.01,42.54-28.65-45.67-63.58-77.03-104.8-94.04h0Z"/>
</svg>