<?xml version="1.0" encoding="UTF-8"?>
<svg id="Ebene_1" xmlns="http://www.w3.org/2000/svg" baseProfile="tiny" version="1.2" viewBox="0 0 5000 5000">
  <!-- Generator: Adobe Illustrator 29.7.0, SVG Export Plug-In . SVG Version: 2.1.1 Build 138)  -->
  <defs>
    <style>
      .st0 {
        fill: #fff;
        stroke: #000;
        stroke-miterlimit: 10;
        stroke-width: 2px;
      }
    </style>
  </defs>
  <path class="st0" d="M4816.86,261.37h-206.49V0h-1866.85v229.88h-237.19v1514.95h-229.88v237.19h-343.62v217.79h-350.94v246.9h-241.97v227.49h-462.3v-225.1h-232.26v-232.26h-232.26v-472h-229.88v1389.12h222.72v237.19h241.97v234.81h229.88v232.26h232.26v225.1h229.88v936.53h472v-239.58h-234.81v-229.88h232.26v-232.26h232.26v-229.88h234.81v229.88h223.51v701.88h466.27v-237.19h-225.1v-926.98h225.1v-234.81h239.58v-348.55h227.49v-812.92h237.19v225.1h225.1v-454.98h-459.75v-467.07h924.44v-232.26h-689.79l-2.39-254.85h1148.74V261.37h0ZM3202.96,583.52h-232.26v-232.26h232.26v232.26Z"/>
</svg>